<svg id="SvgjsSvg1011" xmlns="http://www.w3.org/2000/svg" version="1.1" xmlns:xlink="http://www.w3.org/1999/xlink" xmlns:svgjs="http://svgjs.com/svgjs" width="18" height="21"><defs id="SvgjsDefs1012"></defs><path id="SvgjsPath1013" d="M1210 49.9994C1208.9 49.9994 1208 49.104 1208 47.9996L1212 47.9996C1212 49.104 1211.1 49.9994 1210 49.9994ZM1209 30.9994L1209 32.0794C1206.16 32.5594 1204 35.0293 1204 37.9995L1204 43.9995L1201 46.9995L1219 46.9995L1216 43.9995L1216 37.9995C1216 35.0293 1213.84 32.5594 1211 32.0794L1211 30.9994C1211 30.447100000000002 1210.55 29.9994 1210 29.9994C1209.45 29.9994 1209 30.447100000000002 1209 30.9994Z " fill="#d94141" transform="matrix(1,0,0,1,-1201,-29)"></path></svg>