<svg id="SvgjsSvg1036" xmlns="http://www.w3.org/2000/svg" version="1.1" xmlns:xlink="http://www.w3.org/1999/xlink" xmlns:svgjs="http://svgjs.com/svgjs" width="16" height="16"><defs id="SvgjsDefs1037"></defs><path id="SvgjsPath1038" d="M644 486C639.582 486 636 489.581 636 494C636 498.418 639.582 502 644 502C648.418 502 652 498.418 652 494C652 489.581 648.418 486 644 486ZM644 487.6C645.479 487.6 646.836 488.106 647.92 488.94800000000004L638.948 497.92C638.106 496.836 637.6 495.478 637.6 494C637.6 490.465 640.465 487.6 644 487.6ZM644 500.4C642.521 500.4 641.163 499.893 640.08 499.051L649.051 490.08C649.893 491.163 650.4000000000001 492.52099999999996 650.4000000000001 494C650.4000000000001 497.534 647.5340000000001 500.4 644.0000000000001 500.4Z " fill="#d94141" transform="matrix(1,0,0,1,-636,-486)"></path></svg>