<svg id="SvgjsSvg1018" xmlns="http://www.w3.org/2000/svg" version="1.1" xmlns:xlink="http://www.w3.org/1999/xlink" xmlns:svgjs="http://svgjs.com/svgjs" width="22" height="22"><defs id="SvgjsDefs1019"></defs><path id="SvgjsPath1020" d="M815.192 3006.17L806.976 3006.17L815.636 3000.48C816.009 3000.2400000000002 816.112 2999.7400000000002 815.8679999999999 2999.36C815.6229999999999 2998.9900000000002 815.122 2998.8900000000003 814.7489999999999 2999.13L807.0489999999999 3004.19L809.6089999999998 3000.25C809.8519999999999 2999.87 809.7459999999998 2999.37 809.3719999999998 2999.13C808.9979999999998 2998.8900000000003 808.4979999999998 2998.9900000000002 808.2549999999999 2999.37L803.8359999999999 3006.17L795.8079999999999 3006.17C795.3619999999999 3006.17 794.9999999999999 3006.53 794.9999999999999 3006.98C794.9999999999999 3011.58 797.9629999999999 3015.61 802.2809999999998 3017L802.2809999999998 3018.67C802.2809999999998 3019.4 802.8769999999998 3020 803.6099999999998 3020L807.3899999999998 3020C808.1229999999997 3020 808.7189999999997 3019.4 808.7189999999997 3018.67L808.7189999999997 3017C813.0369999999997 3015.61 815.9999999999997 3011.58 815.9999999999997 3006.98C815.9999999999997 3006.53 815.6389999999997 3006.17 815.1919999999997 3006.17ZM807.71 3015.61C807.3530000000001 3015.7000000000003 807.104 3016.02 807.104 3016.3900000000003L807.104 3018.38L803.897 3018.38L803.897 3016.3900000000003C803.897 3016.0200000000004 803.647 3015.7000000000003 803.2900000000001 3015.61C799.6220000000001 3014.67 796.9870000000001 3011.51 796.6510000000001 3007.79L814.349 3007.79C814.013 3011.5099999999998 811.378 3014.67 807.71 3015.61Z " fill="#edae18" transform="matrix(1,0,0,1,-795,-2998)"></path></svg>