<svg id="SvgjsSvg1000" xmlns="http://www.w3.org/2000/svg" version="1.1" xmlns:xlink="http://www.w3.org/1999/xlink" xmlns:svgjs="http://svgjs.com/svgjs" width="16" height="4"><defs id="SvgjsDefs1001"></defs><path id="SvgjsPath1007" d="M1005 2409C1005 2407.89 1005.9 2407 1007 2407C1008.1 2407 1009 2407.89 1009 2409C1009 2410.1 1008.1 2411 1007 2411C1005.9 2411 1005 2410.1 1005 2409C1005 2407.89 1005 2409 1005 2409ZM999 2409C999 2407.89 999.895 2407 1001 2407C1002.1 2407 1003 2407.89 1003 2409C1003 2410.1 1002.1 2411 1001 2411C999.895 2411 999 2410.1 999 2409C999 2407.89 999 2409 999 2409ZM995 2411C996.104 2411 997 2410.1 997 2409C997 2407.89 996.104 2407 995 2407C993.895 2407 993 2407.89 993 2409C993 2410.1 993.895 2411 995 2411Z " fill="#e0e0e0" transform="matrix(1,0,0,1,-993,-2407)"></path></svg>