<svg id="SvgjsSvg1011" xmlns="http://www.w3.org/2000/svg" version="1.1" xmlns:xlink="http://www.w3.org/1999/xlink" xmlns:svgjs="http://svgjs.com/svgjs" width="16" height="4"><defs id="SvgjsDefs1012"></defs><path id="SvgjsPath1013" d="M1515 696C1515 694.895 1515.9 694 1517 694C1518.1 694 1519 694.895 1519 696C1519 697.104 1518.1 698 1517 698C1515.9 698 1515 697.104 1515 696C1515 694.895 1515 696 1515 696ZM1509 696C1509 694.895 1509.9 694 1511 694C1512.1 694 1513 694.895 1513 696C1513 697.104 1512.1 698 1511 698C1509.9 698 1509 697.104 1509 696C1509 694.895 1509 696 1509 696ZM1505 698C1506.1 698 1507 697.104 1507 696C1507 694.895 1506.1 694 1505 694C1503.9 694 1503 694.895 1503 696C1503 697.104 1503.9 698 1505 698Z " fill="#d94141" transform="matrix(1,0,0,1,-1503,-694)"></path></svg>