<svg id="SvgjsSvg1012" xmlns="http://www.w3.org/2000/svg" version="1.1" xmlns:xlink="http://www.w3.org/1999/xlink" xmlns:svgjs="http://svgjs.com/svgjs" width="204" height="18"><defs id="SvgjsDefs1013"></defs><path id="SvgjsPath1014" d="M1519 279.987C1519 279.97400000000005 1519 279.96200000000005 1519 279.95000000000005C1519 279.94000000000005 1519 279.9320000000001 1518.99 279.922C1518.99 279.91200000000003 1518.99 279.901 1518.99 279.891C1518.99 279.88100000000003 1518.99 279.87 1518.98 279.86C1518.98 279.851 1518.98 279.843 1518.98 279.83500000000004C1518.97 279.82300000000004 1518.97 279.812 1518.97 279.80100000000004C1518.96 279.79400000000004 1518.96 279.78600000000006 1518.96 279.77900000000005C1518.95 279.76800000000003 1518.95 279.75700000000006 1518.94 279.74700000000007C1518.94 279.7390000000001 1518.94 279.73100000000005 1518.93 279.72400000000005C1518.93 279.71400000000006 1518.92 279.70500000000004 1518.92 279.69500000000005C1518.91 279.68700000000007 1518.91 279.67900000000003 1518.9 279.67100000000005C1518.9 279.66200000000003 1518.89 279.65400000000005 1518.89 279.6460000000001C1518.88 279.6380000000001 1518.8700000000001 279.6290000000001 1518.8700000000001 279.6210000000001C1518.8600000000001 279.6140000000001 1518.8600000000001 279.6070000000001 1518.8500000000001 279.6010000000001C1518.8400000000001 279.5920000000001 1518.8400000000001 279.58300000000014 1518.8300000000002 279.5750000000001C1518.8200000000002 279.56900000000013 1518.8200000000002 279.5640000000001 1518.8100000000002 279.5580000000001C1518.8000000000002 279.5500000000001 1518.7900000000002 279.5420000000001 1518.7900000000002 279.5350000000001C1518.7800000000002 279.5290000000001 1518.7700000000002 279.5230000000001 1518.7600000000002 279.5180000000001C1518.7600000000002 279.5120000000001 1518.7500000000002 279.5050000000001 1518.7400000000002 279.4990000000001C1518.7300000000002 279.4930000000001 1518.7200000000003 279.4870000000001 1518.7100000000003 279.4810000000001C1518.7100000000003 279.4760000000001 1518.7000000000003 279.4720000000001 1518.6900000000003 279.46800000000013C1518.6800000000003 279.4610000000001 1518.6700000000003 279.45500000000015 1518.6600000000003 279.45000000000016C1518.6500000000003 279.44800000000015 1518.6500000000003 279.44500000000016 1518.6400000000003 279.4440000000002L1511.2900000000004 276.0250000000002C1511.3100000000004 275.9090000000002 1511.3200000000004 275.7910000000002 1511.3200000000004 275.6710000000002C1511.3200000000004 275.16100000000023 1511.1600000000003 274.6890000000002 1510.8900000000003 274.3010000000002C1510.9500000000003 274.18000000000023 1511.0600000000004 274.03300000000024 1511.1900000000003 273.8880000000002C1511.6200000000003 273.4510000000002 1512.2000000000003 273.2290000000002 1512.9200000000003 273.2290000000002C1513.2600000000002 273.2290000000002 1513.5300000000002 272.95400000000024 1513.5300000000002 272.6140000000002C1513.5300000000002 272.2740000000002 1513.2600000000002 271.9990000000002 1512.9200000000003 271.9990000000002C1511.3600000000004 271.9990000000002 1510.4100000000003 272.7830000000002 1509.9300000000003 273.5060000000002C1509.6300000000003 273.3670000000002 1509.2900000000002 273.2890000000002 1508.9400000000003 273.2890000000002C1508.0300000000002 273.2890000000002 1507.2400000000002 273.8010000000002 1506.8400000000004 274.5520000000002C1506.4100000000003 274.68300000000016 1505.8400000000004 274.9130000000002 1505.2700000000004 275.3040000000002C1504.2400000000005 276.0150000000002 1503.0000000000005 277.4080000000002 1503.0000000000005 280.0010000000002L1503.0000000000005 287.3840000000002C1503.0000000000005 287.7230000000002 1503.2800000000004 287.9990000000002 1503.6200000000003 287.9990000000002L1518.3800000000003 287.9990000000002C1518.7200000000003 287.9990000000002 1519.0000000000002 287.7230000000002 1519.0000000000002 287.3840000000002C1519.0000000000002 287.3790000000002 1519.0000000000002 279.9920000000002 1519.0000000000002 279.9870000000002ZM1506.58 275.965C1506.72 277.14 1507.73 278.05199999999996 1508.9399999999998 278.05199999999996C1509.6899999999998 278.05199999999996 1510.36 277.7 1510.7999999999997 277.15299999999996L1515.5999999999997 279.38599999999997L1504.2599999999998 279.38599999999997C1504.4599999999998 277.35699999999997 1505.6499999999999 276.40399999999994 1506.5799999999997 275.965ZM1504.23 280.617L1517.77 280.617L1517.77 283.077L1504.23 283.077ZM1508.94 274.52C1509.5 274.52 1509.97 274.923 1510.0700000000002 275.455C1510.0800000000002 275.525 1510.0900000000001 275.597 1510.0900000000001 275.671C1510.0900000000001 276.053 1509.9 276.392 1509.6100000000001 276.601C1509.43 276.74 1509.19 276.821 1508.94 276.821C1508.3300000000002 276.821 1507.8300000000002 276.34900000000005 1507.79 275.75300000000004C1507.79 275.72600000000006 1507.79 275.69800000000004 1507.79 275.67100000000005C1507.79 275.24000000000007 1508.03 274.86500000000007 1508.3799999999999 274.66700000000003C1508.54 274.57300000000004 1508.7299999999998 274.52000000000004 1508.9399999999998 274.52000000000004ZM1517.77 286.768L1504.23 286.768L1504.23 284.308L1517.77 284.308Z " fill="#834ad8" transform="matrix(1,0,0,1,-1315,-271)"></path><path id="SvgjsPath1015" d="M1456.98 279.729C1456.82 277.824 1455.94 276.32599999999996 1454.51 275.50899999999996C1453.35 274.85499999999996 1452.24 274.691 1451.19 275.02C1450.48 275.24 1449.91 275.654 1449.48 276.08099999999996C1449.52 274.989 1449.83 273.64399999999995 1451.1100000000001 273.19499999999994C1451.43 273.08199999999994 1451.6000000000001 272.73099999999994 1451.48 272.41099999999994C1451.3700000000001 272.09099999999995 1451.02 271.92199999999997 1450.7 272.03499999999997C1449.32 272.52099999999996 1448.49 273.715 1448.29 275.489C1448.28 275.60999999999996 1448.27 275.729 1448.26 275.846C1447.87 275.508 1447.39 275.199 1446.81 275.02C1445.76 274.691 1444.6399999999999 274.85499999999996 1443.49 275.50899999999996C1442.06 276.32599999999996 1441.18 277.82399999999996 1441.02 279.729C1440.92 280.952 1441.1399999999999 282.305 1441.62 283.537C1442.11 284.789 1442.86 285.86699999999996 1443.7399999999998 286.572C1445.12 287.689 1446.3799999999999 287.999 1447.3599999999997 287.999C1448.0999999999997 287.999 1448.6699999999996 287.819 1448.9999999999998 287.68C1449.3299999999997 287.819 1449.8999999999999 287.999 1450.6399999999999 287.999C1451.62 287.999 1452.8799999999999 287.689 1454.2599999999998 286.572C1455.1399999999999 285.867 1455.8899999999999 284.789 1456.3799999999997 283.537C1456.8599999999997 282.30499999999995 1457.0799999999997 280.952 1456.9799999999996 279.729ZM1453.49 285.614C1451.15 287.50199999999995 1449.39 286.513 1449.32 286.46999999999997L1449.32 286.47299999999996C1449.1299999999999 286.35699999999997 1448.8799999999999 286.34799999999996 1448.6799999999998 286.47299999999996C1448.6599999999999 286.484 1446.8899999999999 287.52899999999994 1444.5099999999998 285.614C1443.0299999999997 284.41999999999996 1442.0799999999997 281.986 1442.2499999999998 279.828C1442.3399999999997 278.777 1442.7299999999998 277.35999999999996 1444.0999999999997 276.57899999999995C1444.9399999999996 276.102 1445.7299999999998 275.97099999999995 1446.4399999999996 276.19199999999995C1447.7299999999996 276.59099999999995 1448.4399999999996 278.01199999999994 1448.4499999999996 278.025C1448.5799999999997 278.306 1448.8999999999996 278.44199999999995 1449.1999999999996 278.34099999999995C1449.2999999999995 278.30799999999994 1449.3799999999997 278.251 1449.4499999999996 278.17999999999995C1449.4499999999996 278.179 1449.4499999999996 278.17699999999996 1449.4499999999996 278.17599999999993C1449.4599999999996 278.16399999999993 1449.4699999999996 278.15099999999995 1449.4799999999996 278.13699999999994C1449.4899999999996 278.13399999999996 1449.4899999999996 278.12999999999994 1449.4899999999996 278.12699999999995C1449.4999999999995 278.11499999999995 1449.5099999999995 278.10299999999995 1449.5199999999995 278.09C1449.5199999999995 278.085 1449.5199999999995 278.08 1449.5299999999995 278.075C1449.5299999999995 278.06399999999996 1449.5399999999995 278.05199999999996 1449.5499999999995 278.03999999999996C1449.5499999999995 278.03499999999997 1449.5499999999995 278.03099999999995 1449.5499999999995 278.027C1449.5599999999995 278.012 1450.2699999999995 276.591 1451.5599999999995 276.192C1452.2699999999995 275.971 1453.0599999999995 276.10200000000003 1453.8999999999994 276.579C1455.2699999999993 277.36 1455.6599999999994 278.777 1455.7499999999993 279.82800000000003C1455.9199999999994 281.98600000000005 1454.9699999999993 284.42 1453.4899999999993 285.61400000000003ZM1453.44 278.672C1453.19 278.90200000000004 1453.17 279.29100000000005 1453.4 279.54100000000005C1453.41 279.5450000000001 1453.75 279.946 1453.51 280.619C1453.4 280.939 1453.57 281.29 1453.89 281.403C1453.96 281.427 1454.0300000000002 281.437 1454.1000000000001 281.437C1454.3500000000001 281.437 1454.5900000000001 281.279 1454.68 281.02500000000003C1455.0600000000002 279.93100000000004 1454.63 279.055 1454.3100000000002 278.70900000000006C1454.0800000000002 278.45900000000006 1453.6900000000003 278.44300000000004 1453.4400000000003 278.6720000000001Z " fill="#0dbd33" transform="matrix(1,0,0,1,-1315,-271)"></path><path id="SvgjsPath1016" d="M1394.38 277.463L1388.1200000000001 277.463L1394.72 273.129C1395.01 272.942 1395.09 272.56 1394.9 272.276C1394.71 271.992 1394.3300000000002 271.913 1394.0500000000002 272.1L1388.1800000000003 275.954L1390.1300000000003 272.95C1390.3200000000004 272.664 1390.2400000000002 272.283 1389.9500000000003 272.098C1389.6600000000003 271.913 1389.2800000000002 271.994 1389.1000000000004 272.279L1385.7300000000005 277.463L1379.6200000000006 277.463C1379.2800000000007 277.463 1379.0000000000007 277.73900000000003 1379.0000000000007 278.079C1379.0000000000007 281.582 1381.2600000000007 284.65500000000003 1384.5500000000006 285.713L1384.5500000000006 286.98600000000005C1384.5500000000006 287.54400000000004 1385.0000000000007 287.999 1385.5600000000006 287.999L1388.4400000000007 287.999C1389.0000000000007 287.999 1389.4500000000007 287.54400000000004 1389.4500000000007 286.98600000000005L1389.4500000000007 285.713C1392.7400000000007 284.65500000000003 1395.0000000000007 281.582 1395.0000000000007 278.079C1395.0000000000007 277.73900000000003 1394.7200000000007 277.463 1394.3800000000008 277.463ZM1388.68 284.654C1388.41 284.724 1388.22 284.969 1388.22 285.25L1388.22 286.768L1385.78 286.768L1385.78 285.25C1385.78 284.969 1385.59 284.724 1385.32 284.654C1382.52 283.937 1380.51 281.534 1380.26 278.694L1393.74 278.694C1393.49 281.534 1391.48 283.937 1388.68 284.654Z " fill="#edae18" transform="matrix(1,0,0,1,-1315,-271)"></path><path id="SvgjsPath1017" d="M1324 272.006C1319.58 272.006 1315.99 275.669 1315.99 280.16999999999996L1315.99 283.30999999999995C1315.99 285.89899999999994 1318.06 288.00499999999994 1320.6 288.00499999999994L1327.3999999999999 288.00499999999994C1329.9399999999998 288.00499999999994 1332.0099999999998 285.89899999999994 1332.0099999999998 283.30999999999995L1332.0099999999998 280.16999999999996C1332.0099999999998 275.669 1328.4099999999999 272.006 1323.9999999999998 272.006ZM1324 273.316C1327.49 273.316 1330.33 276.046 1330.66 279.515L1317.3400000000001 279.515C1317.67 276.046 1320.5100000000002 273.316 1324.0000000000002 273.316ZM1320.9 280.825L1323.3600000000001 280.825L1323.3600000000001 282.655L1320.9 282.655ZM1324.64 280.825L1327.0900000000001 280.825L1327.0900000000001 282.655L1324.64 282.655ZM1328.38 282.655L1328.38 280.825L1330.72 280.825L1330.72 282.655ZM1319.62 280.825L1319.62 282.655L1317.28 282.655L1317.28 280.825ZM1327.4 286.695L1320.6000000000001 286.695C1318.9900000000002 286.695 1317.64 285.519 1317.3400000000001 283.966L1330.66 283.966C1330.3600000000001 285.519 1329.01 286.695 1327.4 286.695Z " fill="#d94141" transform="matrix(1,0,0,1,-1315,-271)"></path></svg>