<svg id="SvgjsSvg1020" xmlns="http://www.w3.org/2000/svg" version="1.1" xmlns:xlink="http://www.w3.org/1999/xlink" xmlns:svgjs="http://svgjs.com/svgjs" width="908" height="19"><defs id="SvgjsDefs1021"></defs><path id="SvgjsPath1022" d="M1492 175C1496.42 175 1500 178.576 1500 183C1500 187.424 1496.42 191 1492 191C1487.58 191 1484 187.424 1484 183C1484 178.576 1487.58 175 1492 175C1496.42 175 1492 175 1492 175ZM1494.87 179L1492 181.872L1489.13 179L1488 180.128L1490.87 183L1488 185.872L1489.13 187L1492 184.128L1494.87 187L1496 185.872L1493.13 183L1496 180.128Z " fill="#d94141" transform="matrix(1,0,0,1,-592,-173)"></path><path id="SvgjsPath1023" d="M1194.22 188.052L1191.25 185.105L1192.45 183.91799999999998L1194.22 185.66899999999998L1198.63 181.31599999999997L1199.8300000000002 182.503ZM1193.8 176.684L1197.2 176.684L1197.2 178.368L1193.8 178.368ZM1202.3 178.368L1198.8999999999999 178.368L1198.8999999999999 176.684L1197.1999999999998 175L1193.7999999999997 175L1192.0999999999997 176.684L1192.0999999999997 178.368L1188.6999999999996 178.368C1187.7599999999995 178.368 1186.9999999999995 179.118 1186.9999999999995 180.052L1186.9999999999995 189.316C1186.9999999999995 190.25 1187.7599999999995 191 1188.6999999999996 191L1202.2999999999995 191C1203.2399999999996 191 1203.9999999999995 190.25 1203.9999999999995 189.316L1203.9999999999995 180.052C1203.9999999999995 179.118 1203.2399999999996 178.368 1202.2999999999995 178.368Z " fill="#d94141" transform="matrix(1,0,0,1,-592,-173)"></path><path id="SvgjsPath1024" d="M909.222 180.6L899.778 180.6L899.778 178.7L909.222 178.7ZM909.222 184.4L899.778 184.4L899.778 182.5L909.222 182.5ZM906.389 188.2L899.778 188.2L899.778 186.29999999999998L906.389 186.29999999999998ZM904.5 174.9C905.022 174.9 905.444 175.32500000000002 905.444 175.85C905.444 176.374 905.0219999999999 176.79999999999998 904.5 176.79999999999998C903.978 176.79999999999998 903.555 176.374 903.555 175.85C903.555 175.325 903.978 174.9 904.5 174.9C905.022 174.9 904.5 174.9 904.5 174.9ZM911.111 174.9L907.163 174.9C906.767 173.798 905.7280000000001 173 904.5 173C903.272 173 902.233 173.798 901.837 174.9L897.889 174.9C896.846 174.9 896 175.75 896 176.8L896 190.10000000000002C896 191.14900000000003 896.846 192.00000000000003 897.889 192.00000000000003L911.111 192.00000000000003C912.154 192.00000000000003 913 191.14900000000003 913 190.10000000000002L913 176.8C913 175.75 912.154 174.9 911.111 174.9Z " fill="#d94141" transform="matrix(1,0,0,1,-592,-173)"></path><path id="SvgjsPath1025" d="M609 188.326L609 189.286L592 189.286L592 188.326L594.002 186.408L594.002 181.143C594.002 178.202 596.127 175.741 598.9979999999999 175.09L598.9979999999999 174.43800000000002C598.9979999999999 173.644 599.6709999999999 173.00000000000003 600.4999999999999 173.00000000000003C601.3289999999998 173.00000000000003 602.0019999999998 173.64400000000003 602.0019999999998 174.43800000000002L602.0019999999998 175.09C604.8729999999998 175.741 606.9979999999998 178.202 606.9979999999998 181.143L606.9979999999998 186.408ZM602.389 190.19C602.389 191.19 601.543 192 600.5 192C599.461 192 598.611 191.195 598.611 190.19C598.611 190.19 602.389 189.191 602.389 190.19ZM604.278 181.143L601.4440000000001 181.143L601.4440000000001 178.428L599.5550000000001 178.428L599.5550000000001 181.143L596.7220000000001 181.143L596.7220000000001 182.952L599.5550000000001 182.952L599.5550000000001 185.666L601.4440000000001 185.666L601.4440000000001 182.952L604.278 182.952Z " fill="#d94141" transform="matrix(1,0,0,1,-592,-173)"></path></svg>