<svg id="SvgjsSvg1026" xmlns="http://www.w3.org/2000/svg" version="1.1" xmlns:xlink="http://www.w3.org/1999/xlink" xmlns:svgjs="http://svgjs.com/svgjs" width="19" height="20"><defs id="SvgjsDefs1027"></defs><path id="SvgjsPath1028" d="M1138.06 107.989C1141.95 107.989 1145.11 110.986 1145.11 114.683C1145.11 116.34100000000001 1144.4699999999998 117.86500000000001 1143.4199999999998 119.039L1143.7099999999998 119.31700000000001L1144.5699999999997 119.31700000000001L1149.9899999999998 124.46600000000001L1148.3599999999997 126.01L1142.9399999999996 120.86200000000001L1142.9399999999996 120.04800000000002L1142.6499999999996 119.77000000000001C1141.4099999999996 120.769 1139.7999999999997 121.37700000000001 1138.0599999999997 121.37700000000001C1134.1599999999996 121.37700000000001 1130.9999999999998 118.38000000000001 1130.9999999999998 114.683C1130.9999999999998 110.986 1134.1599999999999 107.989 1138.0599999999997 107.989C1141.9499999999998 107.989 1138.0599999999997 107.989 1138.0599999999997 107.989ZM1138.06 110.049C1135.34 110.049 1133.1699999999998 112.108 1133.1699999999998 114.683C1133.1699999999998 117.257 1135.34 119.31700000000001 1138.06 119.31700000000001C1140.77 119.31700000000001 1142.94 117.257 1142.94 114.683C1142.94 112.108 1140.77 110.049 1138.06 110.049Z " fill="#d94141" transform="matrix(1,0,0,1,-1131,-107)"></path></svg>