<svg id="SvgjsSvg1020" xmlns="http://www.w3.org/2000/svg" version="1.1" xmlns:xlink="http://www.w3.org/1999/xlink" xmlns:svgjs="http://svgjs.com/svgjs" width="26" height="41"><defs id="SvgjsDefs1021"></defs><path id="SvgjsPath1022" d="M1170.87 476.969C1170.85 476.952 1170.83 476.937 1170.81 476.92C1172.1599999999999 475.019 1173.6 472.993 1175 470.99600000000004L1171.18 470.99600000000004C1170.28 472.53200000000004 1169.39 474.06300000000005 1168.54 475.53100000000006C1168.49 475.51000000000005 1168.44 475.48300000000006 1168.3799999999999 475.4630000000001C1167.6899999999998 475.2000000000001 1166.9799999999998 475.0660000000001 1166.1999999999998 475.2540000000001C1165.7199999999998 475.3420000000001 1165.2699999999998 475.59800000000007 1164.87 475.93000000000006C1164.1599999999999 476.51000000000005 1163.6399999999999 477.24000000000007 1163.2099999999998 478.02700000000004C1161.8999999999999 480.39500000000004 1160.7299999999998 482.83200000000005 1159.6299999999999 485.29800000000006C1159.1499999999999 485.22100000000006 1158.6599999999999 485.18000000000006 1158.1599999999999 485.18000000000006C1153.1 485.18000000000006 1148.9999999999998 489.22600000000006 1148.9999999999998 494.21600000000007C1148.9999999999998 500.99300000000005 1158.1599999999999 510.99700000000007 1158.1599999999999 510.99700000000007C1158.1599999999999 510.99700000000007 1167.32 500.99300000000005 1167.32 494.21600000000007C1167.32 492.33600000000007 1166.74 490.5900000000001 1165.74 489.14400000000006C1167.1200000000001 487.51900000000006 1168.5 485.90200000000004 1169.83 484.24600000000004C1170.54 483.367 1171.1899999999998 482.43100000000004 1171.74 481.446C1172.66 479.766 1172.32 478.22900000000004 1170.8700000000001 476.96900000000005ZM1158.16 497.443C1156.3500000000001 497.443 1154.89 495.998 1154.89 494.216C1154.89 492.434 1156.3500000000001 490.98900000000003 1158.16 490.98900000000003C1159.97 490.98900000000003 1161.43 492.434 1161.43 494.216C1161.43 495.998 1159.97 497.443 1158.16 497.443ZM1162.78 482.019C1163.12 481.54 1163.46 481.061 1163.81 480.588C1164.01 480.317 1164.31 480.242 1164.54 480.38800000000003C1164.78 480.54400000000004 1164.83 480.80800000000005 1164.67 481.12300000000005C1164.63 481.2060000000001 1164.5800000000002 481.2830000000001 1164.53 481.36300000000006C1163.6499999999999 482.89400000000006 1162.76 484.42500000000007 1161.8799999999999 485.95700000000005C1161.3899999999999 485.7420000000001 1160.87 485.56800000000004 1160.34 485.44000000000005C1161.1599999999999 484.29900000000004 1161.97 483.15900000000005 1162.78 482.01900000000006ZM1165.6 481.741C1165.83 481.421 1166.11 481.36699999999996 1166.37 481.546C1166.62 481.71299999999997 1166.6599999999999 481.991 1166.4799999999998 482.30899999999997C1165.8899999999999 483.33599999999996 1165.2999999999997 484.36199999999997 1164.7199999999998 485.388C1164.3999999999999 485.94599999999997 1164.0699999999997 486.503 1163.7499999999998 487.061C1163.3299999999997 486.739 1162.8799999999999 486.453 1162.3999999999999 486.20599999999996C1162.86 485.56399999999996 1163.32 484.92099999999994 1163.78 484.27799999999996C1164.3799999999999 483.431 1164.98 482.58099999999996 1165.6 481.741ZM1168.32 483.377C1168.26 483.507 1168.1799999999998 483.63100000000003 1168.11 483.75600000000003C1167.1799999999998 485.36600000000004 1166.25 486.97600000000006 1165.33 488.586C1164.99 488.168 1164.61 487.781 1164.21 487.428C1164.96 486.366 1165.71 485.304 1166.46 484.243C1166.79 483.772 1167.13 483.301 1167.47 482.841C1167.66 482.594 1167.94 482.539 1168.16 482.672C1168.39 482.81 1168.46 483.091 1168.3200000000002 483.377Z " fill="#d94141" transform="matrix(1,0,0,1,-1149,-470)"></path></svg>