<svg id="SvgjsSvg1000" xmlns="http://www.w3.org/2000/svg" version="1.1" xmlns:xlink="http://www.w3.org/1999/xlink" xmlns:svgjs="http://svgjs.com/svgjs" width="24" height="41"><defs id="SvgjsDefs1001"></defs><path id="SvgjsPath1007" d="M558.4 361.172C553.209 361.172 549 365.21900000000005 549 370.211C549 376.991 558.4 386.999 558.4 386.999C558.4 386.999 567.8009999999999 376.99100000000004 567.8009999999999 370.211C567.8009999999999 365.219 563.592 361.172 558.4 361.172ZM558.4 373.44C556.5459999999999 373.44 555.043 371.99399999999997 555.043 370.211C555.043 368.428 556.546 366.983 558.4 366.983C560.254 366.983 561.7579999999999 368.428 561.7579999999999 370.211C561.7579999999999 371.994 560.2539999999999 373.44 558.4 373.44C556.5459999999999 373.44 558.4 373.44 558.4 373.44ZM556.412 356.798L555.557 359.868C557.352 359.199 559.376 359.051 561.379 359.567C563.157 360.02500000000003 564.677 360.946 565.841 362.156L566.835 358.588C566.8960000000001 358.607 566.957 358.624 567.02 358.641C569.097 359.17600000000004 571.261 357.887 571.853 355.76300000000003C572.4449999999999 353.63800000000003 571.241 351.482 569.164 350.94700000000006C567.555 350.53200000000004 565.894 351.2130000000001 564.952 352.52900000000005C564.878 352.20400000000006 564.879 351.85900000000004 564.975 351.5160000000001C565.267 350.46900000000005 566.317 349.81500000000005 567.405 349.9480000000001C567.031 348.62200000000007 565.953 347.5170000000001 564.471 347.1350000000001C562.442 346.6120000000001 560.362 347.6280000000001 559.573 349.4370000000001C559.428 349.3820000000001 559.279 349.3340000000001 559.125 349.29400000000015C556.91 348.72400000000016 554.635 349.98400000000015 554.043 352.1080000000002C553.504 354.04400000000015 554.548 356.02900000000017 556.412 356.7980000000002Z " fill="#d94141" transform="matrix(1,0,0,1,-549,-346)"></path></svg>