<svg id="SvgjsSvg1008" xmlns="http://www.w3.org/2000/svg" version="1.1" xmlns:xlink="http://www.w3.org/1999/xlink" xmlns:svgjs="http://svgjs.com/svgjs" width="23" height="22"><defs id="SvgjsDefs1009"></defs><path id="SvgjsPath1010" d="M805.499 679.009C799.705 679.009 794.99 683.815 794.99 689.7230000000001L794.99 693.845C794.99 697.243 797.702 700.008 801.0360000000001 700.008L809.964 700.008C813.297 700.008 816.009 697.243 816.009 693.845L816.009 689.7230000000001C816.009 683.815 811.295 679.009 805.499 679.009ZM805.499 680.728C810.076 680.728 813.8050000000001 684.3109999999999 814.2370000000001 688.8629999999999L796.7620000000001 688.8629999999999C797.1940000000001 684.3109999999999 800.9240000000001 680.728 805.499 680.728ZM806.343 690.583L809.5609999999999 690.583L809.5609999999999 692.985L806.343 692.985ZM801.438 690.583L804.656 690.583L804.656 692.985L801.438 692.985ZM799.751 690.583L799.751 692.985L796.677 692.985L796.677 690.583ZM811.249 692.985L811.249 690.583L814.322 690.583L814.322 692.985ZM809.964 698.288L801.0360000000001 698.288C798.922 698.288 797.157 696.744 796.7620000000001 694.705L814.2370000000001 694.705C813.8420000000001 696.744 812.0780000000001 698.288 809.964 698.288Z " fill="#d94141" transform="matrix(1,0,0,1,-794,-679)"></path></svg>