<svg id="SvgjsSvg1009" xmlns="http://www.w3.org/2000/svg" version="1.1" xmlns:xlink="http://www.w3.org/1999/xlink" xmlns:svgjs="http://svgjs.com/svgjs" width="15" height="15"><defs id="SvgjsDefs1010"></defs><path id="SvgjsPath1011" d="M1389.36 239.391L1389.3799999999999 239.37C1390.57 238.011 1391.4099999999999 236.45000000000002 1391.9099999999999 234.799L1393.9099999999999 234.799L1393.9099999999999 233.399L1389.1399999999999 233.399L1389.1399999999999 231.998L1387.77 231.998L1387.77 233.399L1383 233.399L1383 234.799L1390.62 234.799C1390.1599999999999 236.143 1389.4399999999998 237.423 1388.4499999999998 238.544C1387.8199999999997 237.823 1387.2999999999997 237.032 1386.8799999999999 236.198L1385.52 236.198C1386.01 237.34 1386.7 238.418 1387.55 239.39100000000002L1384.08 242.90500000000003L1385.05 243.89800000000002L1388.45 240.39900000000003L1390.57 242.57600000000002L1391.09 241.14700000000002ZM1393.57 237.598L1390.5 245.99900000000002L1391.86 245.99900000000002L1392.6299999999999 243.89800000000002L1395.87 243.89800000000002L1396.6399999999999 245.99900000000002L1397.9999999999998 245.99900000000002L1394.9299999999998 237.598ZM1393.15 242.499L1394.25 239.46699999999998L1395.35 242.499Z " fill="#d94141" transform="matrix(1,0,0,1,-1383,-231)"></path></svg>