<svg id="SvgjsSvg1000" xmlns="http://www.w3.org/2000/svg" version="1.1" xmlns:xlink="http://www.w3.org/1999/xlink" xmlns:svgjs="http://svgjs.com/svgjs" width="155" height="55"><defs id="SvgjsDefs1001"></defs><path id="SvgjsPath1007" d="M387.261 32.1312C380.49 32.1312 375 37.5945 375 44.3346C375 53.4868 387.261 66.9974 387.261 66.9974C387.261 66.9974 399.523 53.4868 399.523 44.334599999999995C399.523 37.5945 394.033 32.13119999999999 387.261 32.13119999999999ZM387.261 48.6926C384.843 48.6926 382.882 46.741299999999995 382.882 44.3346C382.882 41.9274 384.843 39.9767 387.261 39.9767C389.68 39.9767 391.64000000000004 41.9274 391.64000000000004 44.3346C391.64000000000004 46.7413 389.68000000000006 48.6926 387.261 48.6926C384.843 48.6926 387.261 48.6926 387.261 48.6926ZM384.668 26.2268L383.553 30.3707C385.894 29.467299999999998 388.534 29.2672 391.146 29.964299999999998C393.46500000000003 30.5825 395.44800000000004 31.825699999999998 396.966 33.4599L398.26300000000003 28.6425C398.34200000000004 28.6681 398.42300000000006 28.691899999999997 398.50500000000005 28.7141C401.2130000000001 29.4363 404.035 27.697 404.80800000000005 24.8285C405.58000000000004 21.9607 404.01000000000005 19.0494 401.30100000000004 18.327099999999998C399.20200000000006 17.767799999999998 397.03600000000006 18.6865 395.807 20.462699999999998C395.71000000000004 20.0249 395.712 19.559299999999997 395.837 19.0967C396.217 17.682399999999998 397.58799999999997 16.798299999999998 399.007 16.9794C398.519 15.189499999999999 397.113 13.697499999999998 395.18 13.181799999999999C392.532 12.4757 389.82 13.8469 388.791 16.2892C388.602 16.2149 388.407 16.150100000000002 388.206 16.0958C385.31800000000004 15.325600000000001 382.35 17.026600000000002 381.57800000000003 19.8944C380.87500000000006 22.5078 382.23600000000005 25.1887 384.668 26.2268Z " fill="#d94141" transform="matrix(1,0,0,1,-375,-12)"></path><path id="SvgjsPath1008" d="M420 32.1557C420 30.950700000000005 420.959 29.998100000000004 422.172 29.998100000000004C423.38500000000005 29.998100000000004 424.345 30.950700000000005 424.345 32.1557L424.345 37.925900000000006L431.213 37.925900000000006L431.213 32.1557C431.213 30.950700000000005 432.172 29.998100000000004 433.386 29.998100000000004C434.59900000000005 29.998100000000004 435.55800000000005 30.950700000000005 435.55800000000005 32.1557L435.55800000000005 47.7855C435.55800000000005 48.9892 434.59900000000005 49.9419 433.386 49.9419C432.172 49.9419 431.213 48.9892 431.213 47.7855L431.213 41.903L424.345 41.903L424.345 47.7855C424.345 48.9892 423.38500000000005 49.9419 422.172 49.9419C420.959 49.9419 420 48.9892 420 47.7855ZM487.763 47.7855L487.763 32.4912C487.763 31.2868 488.722 30.3339 489.936 30.3339L500.882 30.3339C501.954 30.3339 502.829 31.2029 502.829 32.2678C502.829 33.331900000000005 501.954 34.171800000000005 500.882 34.171800000000005L492.08 34.171800000000005L492.08 38.149300000000004L499.61199999999997 38.149300000000004C500.68399999999997 38.149300000000004 501.55899999999997 39.018 501.55899999999997 40.0825C501.55899999999997 41.14660000000001 500.68399999999997 41.987100000000005 499.61199999999997 41.987100000000005L492.08 41.987100000000005L492.08 46.10470000000001L501.02299999999997 46.10470000000001C502.09499999999997 46.10470000000001 502.96999999999997 46.973400000000005 502.96999999999997 48.03770000000001C502.96999999999997 49.10210000000001 502.09499999999997 49.94190000000001 501.02299999999997 49.94190000000001L489.936 49.94190000000001C488.722 49.94190000000001 487.763 48.98920000000001 487.763 47.78550000000001ZM437.505 42.2393L437.505 42.182900000000004C437.505 37.8699 441.003 34.3682 445.714 34.3682C450.398 34.3682 453.868 37.8141 453.868 42.127300000000005L453.868 42.182900000000004C453.868 46.49680000000001 450.36899999999997 49.9986 445.658 49.9986C440.975 49.9986 437.505 46.5533 437.505 42.2393ZM504.234 45.2082L504.234 45.152499999999996C504.234 41.875 506.745 40.3625 510.328 40.3625C511.852 40.3625 512.952 40.6145 514.024 40.978899999999996L514.024 40.7266C514.024 38.9621 512.924 37.9811 510.78 37.9811C509.59499999999997 37.9811 508.63599999999997 38.1493 507.81699999999995 38.4017C507.56299999999993 38.485299999999995 507.39399999999995 38.5139 507.19699999999995 38.5139C506.20899999999995 38.5139 505.4189999999999 37.7571 505.4189999999999 36.7776C505.4189999999999 36.0204 505.89899999999994 35.3767 506.5759999999999 35.1241C507.9299999999999 34.6199 509.39699999999993 34.340399999999995 511.4009999999999 34.340399999999995C513.7419999999998 34.340399999999995 515.435 34.956799999999994 516.507 36.020399999999995C517.635 37.141799999999996 518.1429999999999 38.7942 518.1429999999999 40.8105L518.1429999999999 47.6455C518.1429999999999 48.7935 517.2119999999999 49.6902 516.055 49.6902C514.814 49.6902 513.996 48.8214 513.996 47.9251L513.996 47.8971C512.952 49.0458 511.513 49.801300000000005 509.426 49.801300000000005C506.57599999999996 49.801300000000005 504.234 48.177200000000006 504.234 45.208200000000005ZM521.987 45.2636L521.987 38.1493L521.242 38.1493C520.226 38.1493 519.408 37.3371 519.408 36.328799999999994C519.408 35.320499999999996 520.226 34.507999999999996 521.242 34.507999999999996L521.987 34.507999999999996L521.987 32.63139999999999C521.987 31.45519999999999 522.9459999999999 30.502699999999994 524.131 30.502699999999994C525.3159999999999 30.502699999999994 526.275 31.455199999999994 526.275 32.63139999999999L526.275 34.507999999999996L528.1659999999999 34.507999999999996C529.1809999999999 34.507999999999996 529.9999999999999 35.320499999999996 529.9999999999999 36.328799999999994C529.9999999999999 37.33709999999999 529.1809999999999 38.1493 528.1659999999999 38.1493L526.275 38.1493L526.275 44.5644C526.275 45.5443 526.699 46.0209 527.658 46.0209C527.799 46.0209 528.081 45.992799999999995 528.166 45.992799999999995C529.125 45.992799999999995 529.9430000000001 46.776199999999996 529.9430000000001 47.7572C529.9430000000001 48.5139 529.4350000000001 49.129799999999996 528.8430000000001 49.3542C528.0530000000001 49.661899999999996 527.3190000000001 49.7743 526.3890000000001 49.7743C523.7650000000001 49.7743 521.9870000000001 48.738099999999996 521.9870000000001 45.2636ZM455.647 48.2333C455.19599999999997 47.9534 454.829 47.4488 454.829 46.7771C454.829 45.824799999999996 455.563 45.0963 456.522 45.0963C456.832 45.0963 457.143 45.1807 457.368 45.320299999999996C458.807 46.21659999999999 460.246 46.6648 461.459 46.6648C462.7 46.6648 463.265 46.2166 463.265 45.5443L463.265 45.4888C463.265 44.5644 461.798 44.2557 460.133 43.751799999999996C458.017 43.135999999999996 455.61899999999997 42.155199999999994 455.61899999999997 39.242L455.61899999999997 39.186C455.61899999999997 36.133 458.102 34.4241 461.14899999999994 34.4241C462.72799999999995 34.4241 464.36499999999995 34.844300000000004 465.83199999999994 35.572300000000006C466.45199999999994 35.880900000000004 466.84799999999996 36.4408 466.84799999999996 37.169700000000006C466.84799999999996 38.12120000000001 466.08599999999996 38.849900000000005 465.12699999999995 38.849900000000005C464.816 38.849900000000005 464.61899999999997 38.794200000000004 464.33699999999993 38.65390000000001C463.1239999999999 38.065900000000006 461.9669999999999 37.701600000000006 461.0639999999999 37.701600000000006C460.0199999999999 37.701600000000006 459.4839999999999 38.149300000000004 459.4839999999999 38.7379L459.4839999999999 38.794200000000004C459.4839999999999 39.6336 460.92299999999994 40.0262 462.5589999999999 40.587C464.6749999999999 41.2864 467.12999999999994 42.295700000000004 467.12999999999994 45.0405L467.12999999999994 45.0963C467.12999999999994 48.429899999999996 464.6189999999999 49.9419 461.34599999999995 49.9419C459.4839999999999 49.9419 457.48099999999994 49.40989999999999 455.64699999999993 48.2333ZM449.183 42.2327L449.183 42.182900000000004C449.183 40.2242 447.759 38.513000000000005 445.661 38.513000000000005C443.488 38.513000000000005 442.189 40.1745 442.189 42.134100000000004L442.189 42.182900000000004C442.189 44.1426 443.613 45.8532 445.711 45.8532C447.884 45.8532 449.183 44.1921 449.183 42.2327ZM512.86 44.3169L512.86 43.6222C512.186 43.314 511.30600000000004 43.1081 510.34700000000004 43.1081C508.663 43.1081 507.627 43.7768 507.627 45.0111L507.627 45.063C507.627 46.1176 508.508 46.7349 509.777 46.7349C511.616 46.7349 512.86 45.7319 512.86 44.316900000000004ZM471.234 45.4323L471.234 38.3183L470.488 38.3183C469.473 38.3183 468.655 37.5055 468.655 36.4974C468.655 35.4885 469.47299999999996 34.6763 470.488 34.6763L471.234 34.6763L471.234 32.7998C471.234 31.623599999999996 472.193 30.670899999999996 473.378 30.670899999999996C474.563 30.670899999999996 475.522 31.623599999999996 475.522 32.7998L475.522 34.6763L477.413 34.6763C478.428 34.6763 479.247 35.488499999999995 479.247 36.4974C479.247 37.5055 478.428 38.3183 477.413 38.3183L475.522 38.3183L475.522 44.7328C475.522 45.712199999999996 475.945 46.1889 476.905 46.1889C477.046 46.1889 477.328 46.1611 477.41299999999995 46.1611C478.37199999999996 46.1611 479.18999999999994 46.9452 479.18999999999994 47.9257C479.18999999999994 48.681799999999996 478.68199999999996 49.2982 478.0899999999999 49.522C477.2999999999999 49.8303 476.5659999999999 49.9419 475.63499999999993 49.9419C473.0109999999999 49.9419 471.2339999999999 48.906299999999995 471.2339999999999 45.4323Z " fill="#d94141" transform="matrix(1,0,0,1,-375,-12)"></path></svg>