<svg id="SvgjsSvg1029" xmlns="http://www.w3.org/2000/svg" version="1.1" xmlns:xlink="http://www.w3.org/1999/xlink" xmlns:svgjs="http://svgjs.com/svgjs" width="14" height="21"><defs id="SvgjsDefs1030"></defs><path id="SvgjsPath1031" d="M1222 117.499C1220.62 117.499 1219.5 116.38 1219.5 114.999C1219.5 113.619 1220.62 112.499 1222 112.499C1223.38 112.499 1224.5 113.619 1224.5 114.999C1224.5 116.38 1223.38 117.499 1222 117.499C1220.62 117.499 1222 117.499 1222 117.499ZM1222 107.999C1218.13 107.999 1215 111.133 1215 114.999C1215 120.249 1222 127.999 1222 127.999C1222 127.999 1229 120.249 1229 114.999C1229 111.133 1225.87 107.999 1222 107.999Z " fill="#d94141" transform="matrix(1,0,0,1,-1215,-107)"></path></svg>