<svg id="SvgjsSvg1030" xmlns="http://www.w3.org/2000/svg" version="1.1" xmlns:xlink="http://www.w3.org/1999/xlink" xmlns:svgjs="http://svgjs.com/svgjs" width="10" height="15"><defs id="SvgjsDefs1031"></defs><path id="SvgjsPath1032" d="M380 403.648C379.014 403.648 378.214 402.865 378.214 401.899C378.214 400.932 379.014 400.149 380 400.149C380.986 400.149 381.785 400.932 381.785 401.899C381.785 402.865 380.98600000000005 403.648 380 403.648C379.014 403.648 380 403.648 380 403.648ZM380 396.999C377.238 396.999 375 399.19300000000004 375 401.899C375 405.573 380 410.999 380 410.999C380 410.999 385 405.57300000000004 385 401.899C385 399.193 382.761 396.999 380 396.999Z " fill="#d94141" transform="matrix(1,0,0,1,-375,-396)"></path></svg>