<svg id="SvgjsSvg1033" xmlns="http://www.w3.org/2000/svg" version="1.1" xmlns:xlink="http://www.w3.org/1999/xlink" xmlns:svgjs="http://svgjs.com/svgjs" width="16" height="5"><defs id="SvgjsDefs1034"></defs><path id="SvgjsPath1035" d="M689 446.999C689 445.89500000000004 689.895 444.999 691 444.999C692.104 444.999 693 445.89500000000004 693 446.999C693 448.10400000000004 692.104 448.999 691 448.999C689.895 448.999 689 448.10400000000004 689 446.999C689 445.89500000000004 689 446.999 689 446.999ZM683 446.999C683 445.89500000000004 683.895 444.999 685 444.999C686.104 444.999 687 445.89500000000004 687 446.999C687 448.10400000000004 686.104 448.999 685 448.999C683.895 448.999 683 448.10400000000004 683 446.999C683 445.89500000000004 683 446.999 683 446.999ZM679 448.999C680.104 448.999 681 448.10400000000004 681 446.999C681 445.89500000000004 680.104 444.999 679 444.999C677.895 444.999 677 445.89500000000004 677 446.999C677 448.10400000000004 677.895 448.999 679 448.999Z " fill="#d94141" transform="matrix(1,0,0,1,-677,-444)"></path></svg>