<svg id="SvgjsSvg1017" xmlns="http://www.w3.org/2000/svg" version="1.1" xmlns:xlink="http://www.w3.org/1999/xlink" xmlns:svgjs="http://svgjs.com/svgjs" width="13" height="14"><defs id="SvgjsDefs1018"></defs><path id="SvgjsPath1019" d="M1456.72 1109.61L1452.1100000000001 1109.61L1454.6200000000001 1107.1399999999999L1453.47 1106.0099999999998L1449 1110.4099999999999L1453.47 1114.81L1454.6100000000001 1113.6799999999998L1452.1100000000001 1111.2099999999998L1456.72 1111.2099999999998C1458.75 1111.2099999999998 1460.3700000000001 1112.8099999999997 1460.3700000000001 1114.8099999999997C1460.3700000000001 1116.7999999999997 1458.7500000000002 1118.3999999999996 1456.72 1118.3999999999996L1453.8700000000001 1118.3999999999996L1453.8700000000001 1119.9999999999995L1456.72 1119.9999999999995C1459.64 1119.9999999999995 1462 1117.6799999999996 1462 1114.8099999999995C1462 1111.9399999999996 1459.64 1109.6099999999994 1456.72 1109.6099999999994C1453.8 1109.6099999999994 1456.72 1109.6099999999994 1456.72 1109.6099999999994ZM1450.62 1118.4L1452.25 1118.4L1452.25 1120L1450.62 1120Z " fill="#d94141" transform="matrix(1,0,0,1,-1449,-1106)"></path></svg>