<svg id="SvgjsSvg1009" xmlns="http://www.w3.org/2000/svg" version="1.1" xmlns:xlink="http://www.w3.org/1999/xlink" xmlns:svgjs="http://svgjs.com/svgjs" width="14" height="14"><defs id="SvgjsDefs1010"></defs><path id="SvgjsPath1011" d="M1403 122.449C1401.61 122.449 1400.49 121.353 1400.49 119.999C1400.49 118.646 1401.61 117.55 1403 117.55C1404.39 117.55 1405.51 118.646 1405.51 119.999C1405.51 121.353 1404.39 122.449 1403 122.449C1401.61 122.449 1403 122.449 1403 122.449ZM1408.34 120.679C1408.37 120.45400000000001 1408.3899999999999 120.23100000000001 1408.3899999999999 119.999C1408.3899999999999 119.76899999999999 1408.37 119.538 1408.34 119.3L1409.85 118.15899999999999C1409.99 118.05399999999999 1410.03 117.865 1409.9399999999998 117.711L1408.4999999999998 115.289C1408.4199999999998 115.134 1408.2199999999998 115.071 1408.0599999999997 115.134L1406.2799999999997 115.835C1405.8999999999996 115.562 1405.5099999999998 115.324 1405.0599999999997 115.14899999999999L1404.7999999999997 113.29399999999998C1404.7699999999998 113.12599999999998 1404.6199999999997 112.99999999999999 1404.4399999999998 112.99999999999999L1401.5599999999997 112.99999999999999C1401.3799999999997 112.99999999999999 1401.2299999999998 113.12599999999999 1401.1999999999998 113.29399999999998L1400.9399999999998 115.14899999999999C1400.4899999999998 115.32399999999998 1400.1 115.56199999999998 1399.7199999999998 115.835L1397.9299999999998 115.134C1397.7799999999997 115.071 1397.58 115.134 1397.4999999999998 115.289L1396.0599999999997 117.711C1395.9699999999998 117.865 1396.0099999999998 118.054 1396.1499999999996 118.15899999999999L1397.6599999999996 119.3C1397.6299999999997 119.538 1397.6099999999997 119.76899999999999 1397.6099999999997 119.999C1397.6099999999997 120.231 1397.6299999999997 120.454 1397.6599999999996 120.679L1396.1499999999996 121.84C1396.0099999999995 121.946 1395.9699999999996 122.135 1396.0599999999997 122.288L1397.4999999999998 124.711C1397.5799999999997 124.865 1397.7799999999997 124.92099999999999 1397.9299999999998 124.865L1399.7199999999998 124.158C1400.1 124.438 1400.4899999999998 124.676 1400.9399999999998 124.851L1401.1999999999998 126.706C1401.2299999999998 126.873 1401.3799999999999 127 1401.5599999999997 127L1404.4399999999998 127C1404.62 127 1404.7699999999998 126.873 1404.7999999999997 126.706L1405.0599999999997 124.851C1405.5099999999998 124.66799999999999 1405.8999999999996 124.438 1406.2799999999997 124.158L1408.0599999999997 124.865C1408.2199999999998 124.92099999999999 1408.4199999999996 124.865 1408.4999999999998 124.711L1409.9399999999998 122.288C1410.0299999999997 122.13499999999999 1409.9899999999998 121.946 1409.85 121.84Z " fill="#ffffff" transform="matrix(1,0,0,1,-1396,-113)"></path></svg>