<svg id="SvgjsSvg1000" xmlns="http://www.w3.org/2000/svg" version="1.1" xmlns:xlink="http://www.w3.org/1999/xlink" xmlns:svgjs="http://svgjs.com/svgjs" width="195" height="18"><defs id="SvgjsDefs1001"></defs><path id="SvgjsPath1007" d="M1349 1457L1349 1457L1349 1457L1349 1460.2L1347.4 1460.2C1346.8500000000001 1460.2 1346.6000000000001 1460.8500000000001 1346.6000000000001 1461.4L1346.6000000000001 1463.4L1346.6000000000001 1463.4L1349.0000000000002 1463.4L1349.0000000000002 1466.6000000000001L1346.6000000000001 1466.6000000000001L1346.6000000000001 1473.0000000000002L1343.4 1473.0000000000002L1343.4 1466.6000000000001L1341 1466.6000000000001L1341 1463.4L1343.4 1463.4L1343.4 1460.2C1343.4 1458.43 1344.8300000000002 1457 1346.6000000000001 1457Z " fill="#787e8c" transform="matrix(1,0,0,1,-1341,-1457)"></path><path id="SvgjsPath1008" d="M1412.36 1469.08C1413.9199999999998 1470.5 1414.24 1471.1899999999998 1414.29 1471.28C1414.94 1472.33 1413.59 1472.41 1413.59 1472.41L1410.99 1472.45C1410.99 1472.45 1410.42 1472.56 1409.7 1472.06C1408.72 1471.4099999999999 1407.78 1469.69 1407.0900000000001 1469.9199999999998C1406.3700000000001 1470.1499999999999 1406.39 1471.6799999999998 1406.39 1471.6799999999998C1406.39 1471.6799999999998 1406.39 1471.8999999999999 1406.23 1472.07C1406.05 1472.26 1405.7 1472.1899999999998 1405.7 1472.1899999999998L1404.54 1472.1899999999998C1404.54 1472.1899999999998 1401.97 1472.4499999999998 1399.72 1470.1399999999999C1397.25 1467.62 1395.07 1462.6599999999999 1395.07 1462.6599999999999C1395.07 1462.6599999999999 1394.95 1462.36 1395.08 1462.1899999999998C1395.24 1462.0399999999997 1395.6599999999999 1462.0399999999997 1395.6599999999999 1462.0399999999997L1398.4399999999998 1462.0399999999997C1398.4399999999998 1462.0399999999997 1398.7099999999998 1462.0399999999997 1398.8799999999999 1462.1899999999998C1399.04 1462.2999999999997 1399.1299999999999 1462.5299999999997 1399.1299999999999 1462.5299999999997C1399.1299999999999 1462.5299999999997 1399.57 1463.6299999999997 1400.1699999999998 1464.6399999999996C1401.33 1466.6199999999997 1401.87 1467.0399999999997 1402.2399999999998 1466.8399999999997C1402.8399999999997 1466.5299999999997 1402.6699999999998 1464.0499999999997 1402.6699999999998 1464.0499999999997C1402.6699999999998 1464.0499999999997 1402.6799999999998 1463.1499999999996 1402.3799999999999 1462.7499999999998C1402.1499999999999 1462.4399999999998 1401.7099999999998 1462.3399999999997 1401.51 1462.3199999999997C1401.35 1462.2999999999997 1401.62 1461.9499999999998 1401.95 1461.7799999999997C1402.45 1461.5399999999997 1403.3300000000002 1461.5399999999997 1404.38 1461.5399999999997C1405.19 1461.5399999999997 1405.42 1461.5999999999997 1405.74 1461.6699999999998C1406.7 1461.8999999999999 1406.3700000000001 1462.7799999999997 1406.3700000000001 1464.8799999999999C1406.3700000000001 1465.57 1406.2700000000002 1466.4999999999998 1406.74 1466.83C1406.96 1466.96 1407.48 1466.85 1408.79 1464.6699999999998C1409.3999999999999 1463.6399999999999 1409.86 1462.4199999999998 1409.86 1462.4199999999998C1409.86 1462.4199999999998 1409.9599999999998 1462.2099999999998 1410.11 1462.11C1410.27 1462.04 1410.49 1462.04 1410.49 1462.04L1413.42 1462.04C1413.42 1462.04 1414.3000000000002 1461.94 1414.44 1462.32C1414.6000000000001 1462.73 1414.1100000000001 1463.6899999999998 1412.91 1465.25C1410.96 1467.83 1410.74 1467.59 1412.3600000000001 1469.08Z " fill="#787e8c" transform="matrix(1,0,0,1,-1341,-1457)"></path><path id="SvgjsPath1009" d="M1536 1466.57L1534.09 1466.57L1534.09 1464.71L1532.1799999999998 1464.71L1532.1799999999998 1466.57L1530.2699999999998 1466.57L1530.2699999999998 1468.4299999999998L1532.1799999999998 1468.4299999999998L1532.1799999999998 1470.2799999999997L1534.09 1470.2799999999997L1534.09 1468.4299999999998L1536 1468.4299999999998ZM1527.98 1466.57C1528.08 1466.9399999999998 1528.08 1467.22 1528.08 1467.6799999999998C1528.08 1471.3999999999999 1525.5 1473.9999999999998 1521.6799999999998 1473.9999999999998C1517.9599999999998 1473.9999999999998 1514.9999999999998 1471.1199999999997 1514.9999999999998 1467.4999999999998C1514.9999999999998 1463.8799999999999 1517.9599999999998 1460.9999999999998 1521.6799999999998 1460.9999999999998C1523.4999999999998 1460.9999999999998 1525.0199999999998 1461.6499999999999 1526.1699999999998 1462.7599999999998L1524.35 1464.4299999999998C1523.8799999999999 1463.9699999999998 1523.02 1463.4099999999999 1521.6799999999998 1463.4099999999999C1519.3899999999999 1463.4099999999999 1517.58 1465.2699999999998 1517.58 1467.4999999999998C1517.58 1469.7299999999998 1519.3899999999999 1471.5799999999997 1521.6799999999998 1471.5799999999997C1524.35 1471.5799999999997 1525.31 1469.7299999999998 1525.4999999999998 1468.7999999999997L1521.6799999999998 1468.7999999999997L1521.6799999999998 1466.5699999999997Z " fill="#787e8c" transform="matrix(1,0,0,1,-1341,-1457)"></path><path id="SvgjsPath1010" d="M1474.01 1462.65C1473.39 1462.93 1472.71 1463.1200000000001 1472.01 1463.21C1472.73 1462.78 1473.28 1462.0900000000001 1473.54 1461.25C1472.86 1461.67 1472.12 1461.95 1471.33 1462.12C1470.6799999999998 1461.4099999999999 1469.78 1461 1468.76 1461C1466.84 1461 1465.28 1462.58 1465.28 1464.53C1465.28 1464.81 1465.31 1465.08 1465.37 1465.34C1462.4799999999998 1465.1899999999998 1459.8999999999999 1463.78 1458.1799999999998 1461.6499999999999C1457.8799999999999 1462.1699999999998 1457.7099999999998 1462.78 1457.7099999999998 1463.4199999999998C1457.7099999999998 1464.6499999999999 1458.3199999999997 1465.7299999999998 1459.2599999999998 1466.35C1458.6799999999998 1466.35 1458.1499999999999 1466.1899999999998 1457.6799999999998 1465.9399999999998C1457.6799999999998 1465.9399999999998 1457.6799999999998 1465.9399999999998 1457.6799999999998 1465.9599999999998C1457.6799999999998 1467.6799999999998 1458.8799999999999 1469.11 1460.4699999999998 1469.4299999999998C1460.1799999999998 1469.5099999999998 1459.87 1469.56 1459.5499999999997 1469.56C1459.3399999999997 1469.56 1459.1199999999997 1469.53 1458.8999999999996 1469.49C1459.3399999999997 1470.88 1460.6199999999997 1471.92 1462.1599999999996 1471.94C1460.9699999999996 1472.9 1459.4699999999996 1473.46 1457.8199999999997 1473.46C1457.5499999999997 1473.46 1457.2699999999998 1473.44 1456.9899999999998 1473.41C1458.5399999999997 1474.41 1460.3799999999999 1475 1462.3499999999997 1475C1468.7599999999998 1475 1472.2799999999997 1469.61 1472.2799999999997 1464.94C1472.2799999999997 1464.79 1472.2799999999997 1464.64 1472.2699999999998 1464.48C1472.9499999999998 1463.99 1473.5399999999997 1463.3600000000001 1474.0099999999998 1462.65Z " fill="#787e8c" transform="matrix(1,0,0,1,-1341,-1457)"></path></svg>