<svg id="SvgjsSvg1017" xmlns="http://www.w3.org/2000/svg" version="1.1" xmlns:xlink="http://www.w3.org/1999/xlink" xmlns:svgjs="http://svgjs.com/svgjs" width="14" height="51"><defs id="SvgjsDefs1018"></defs><path id="SvgjsPath1019" d="M1195 342.999L1198.63 339.32500000000005L1198.63 341.6L1203.47 341.6L1203.47 344.399L1198.63 344.399L1198.63 346.674ZM1201.39 336C1200.63 336 1200.01 336.626 1200.01 337.399L1200.01 340.199L1201.39 340.199L1201.39 337.399L1207.6100000000001 337.399L1207.6100000000001 348.599L1201.39 348.599L1201.39 345.799L1200.01 345.799L1200.01 348.599C1200.01 349.372 1200.6299999999999 350 1201.39 350L1207.6100000000001 350C1208.38 350 1209.0000000000002 349.372 1209.0000000000002 348.599L1209.0000000000002 337.399C1209.0000000000002 336.626 1208.3800000000003 336 1207.6100000000001 336Z " fill="#d94141" transform="matrix(1,0,0,1,-1195,-299)"></path><path id="SvgjsPath1020" d="M1202 309.45C1200.61 309.45 1199.49 308.353 1199.49 307C1199.49 305.646 1200.61 304.55 1202 304.55C1203.39 304.55 1204.51 305.646 1204.51 307C1204.51 308.353 1203.39 309.45 1202 309.45C1200.61 309.45 1202 309.45 1202 309.45ZM1207.34 307.679C1207.37 307.45399999999995 1207.3899999999999 307.22999999999996 1207.3899999999999 307C1207.3899999999999 306.768 1207.37 306.538 1207.34 306.299L1208.85 305.159C1208.99 305.053 1209.03 304.865 1208.9399999999998 304.71L1207.4999999999998 302.28799999999995C1207.4199999999998 302.13399999999996 1207.2199999999998 302.07099999999997 1207.0599999999997 302.13399999999996L1205.2799999999997 302.835C1204.8999999999996 302.56199999999995 1204.5099999999998 302.32399999999996 1204.0599999999997 302.14799999999997L1203.7999999999997 300.29299999999995C1203.7699999999998 300.126 1203.6199999999997 299.99899999999997 1203.4399999999998 299.99899999999997L1200.5599999999997 299.99899999999997C1200.3799999999997 299.99899999999997 1200.2299999999998 300.126 1200.1999999999998 300.29299999999995L1199.9399999999998 302.14799999999997C1199.4899999999998 302.32399999999996 1199.1 302.56199999999995 1198.7199999999998 302.835L1196.9299999999998 302.13399999999996C1196.7799999999997 302.07099999999997 1196.58 302.13399999999996 1196.4999999999998 302.28799999999995L1195.0599999999997 304.71C1194.9699999999998 304.86499999999995 1195.0099999999998 305.053 1195.1499999999996 305.159L1196.6599999999996 306.299C1196.6299999999997 306.53799999999995 1196.6099999999997 306.768 1196.6099999999997 307C1196.6099999999997 307.23 1196.6299999999997 307.454 1196.6599999999996 307.679L1195.1499999999996 308.84C1195.0099999999995 308.945 1194.9699999999996 309.135 1195.0599999999997 309.28799999999995L1196.4999999999998 311.71C1196.5799999999997 311.864 1196.7799999999997 311.91999999999996 1196.9299999999998 311.864L1198.7199999999998 311.157C1199.1 311.43699999999995 1199.4899999999998 311.67499999999995 1199.9399999999998 311.851L1200.1999999999998 313.705C1200.2299999999998 313.87399999999997 1200.3799999999999 314 1200.5599999999997 314L1203.4399999999998 314C1203.62 314 1203.7699999999998 313.874 1203.7999999999997 313.705L1204.0599999999997 311.851C1204.5099999999998 311.668 1204.8999999999996 311.437 1205.2799999999997 311.157L1207.0599999999997 311.864C1207.2199999999998 311.91999999999996 1207.4199999999996 311.864 1207.4999999999998 311.71L1208.9399999999998 309.28799999999995C1209.0299999999997 309.13499999999993 1208.9899999999998 308.94499999999994 1208.85 308.84Z " fill="#d94141" transform="matrix(1,0,0,1,-1195,-299)"></path></svg>