<svg id="SvgjsSvg1021" xmlns="http://www.w3.org/2000/svg" version="1.1" xmlns:xlink="http://www.w3.org/1999/xlink" xmlns:svgjs="http://svgjs.com/svgjs" width="312" height="17"><defs id="SvgjsDefs1022"></defs><path id="SvgjsPath1023" d="M894.591 176.982L893.355 175.488C893.115 175.186 892.751 175 892.333 175L881.6659999999999 175C881.2489999999999 175 880.8839999999999 175.186 880.635 175.488L879.409 176.982C879.151 177.284 879 177.684 879 178.111L879 189.22199999999998C879 190.2 879.8 190.99999999999997 880.778 190.99999999999997L893.222 190.99999999999997C894.1999999999999 190.99999999999997 895 190.19999999999996 895 189.22199999999998L895 178.111C895 177.684 894.849 177.284 894.591 176.982ZM887 187.889L882.111 183L885.222 183L885.222 181.222L888.778 181.222L888.778 183L891.889 183ZM880.884 176.777L881.604 175.88899999999998L892.2710000000001 175.88899999999998L893.1060000000001 176.777Z " fill="#d94141" transform="matrix(1,0,0,1,-583,-175)"></path><path id="SvgjsPath1024" d="M588.763 184.009L591.282 181.515L585.034 175.33999999999997C583.645 176.71399999999997 583.645 178.94299999999998 585.034 180.32599999999996ZM593.489 183.709L599.6120000000001 189.77L598.3570000000001 191.013L592.234 184.952L586.1020000000001 191.004L584.8470000000001 189.762L593.5330000000001 181.163C592.9010000000002 179.815 593.3470000000001 177.92100000000002 594.7620000000002 176.52C596.4710000000001 174.83700000000002 598.9090000000002 174.52 600.2090000000002 175.806C601.5170000000002 177.102 601.1880000000002 179.51500000000001 599.4880000000002 181.198C598.0730000000002 182.59900000000002 596.1590000000002 183.04000000000002 594.7970000000001 182.41400000000002Z " fill="#d94141" transform="matrix(1,0,0,1,-583,-175)"></path></svg>