<svg id="SvgjsSvg1015" xmlns="http://www.w3.org/2000/svg" version="1.1" xmlns:xlink="http://www.w3.org/1999/xlink" xmlns:svgjs="http://svgjs.com/svgjs" width="38" height="219"><defs id="SvgjsDefs1016"></defs><path id="SvgjsPath1017" d="M1436.1 949L1432 953.099L1432 958.9010000000001L1436.1 963.0000000000001L1441.8999999999999 963.0000000000001L1445.9999999999998 958.9010000000001L1445.9999999999998 953.099L1441.8999999999999 949ZM1436.21 952.111L1439 954.903L1441.79 952.111L1442.8899999999999 953.208L1440.1 956L1442.8899999999999 958.792L1441.79 959.889L1439 957.096L1436.21 959.889L1435.1100000000001 958.792L1437.9 956L1435.1100000000001 953.208Z " fill="#d94141" transform="matrix(1,0,0,1,-1432,-744)"></path><path id="SvgjsPath1018" d="M1470 839L1468 839L1468 837L1466 837L1466 839L1464 839L1464 841L1466 841L1466 843L1468 843L1468 841L1470 841ZM1461.6 839C1461.6999999999998 839.4 1461.6999999999998 839.7 1461.6999999999998 840.2C1461.6999999999998 844.2 1458.9999999999998 847 1454.9999999999998 847C1451.0999999999997 847 1447.9999999999998 843.9 1447.9999999999998 840C1447.9999999999998 836.1 1451.0999999999997 833 1454.9999999999998 833C1456.8999999999999 833 1458.4999999999998 833.7 1459.6999999999998 834.9L1457.7999999999997 836.6999999999999C1457.2999999999997 836.1999999999999 1456.3999999999996 835.5999999999999 1454.9999999999998 835.5999999999999C1452.5999999999997 835.5999999999999 1450.6999999999998 837.5999999999999 1450.6999999999998 839.9999999999999C1450.6999999999998 842.3999999999999 1452.6 844.3999999999999 1454.9999999999998 844.3999999999999C1457.7999999999997 844.3999999999999 1458.7999999999997 842.3999999999999 1458.9999999999998 841.3999999999999L1454.9999999999998 841.3999999999999L1454.9999999999998 838.9999999999999Z " fill="#d73d32" transform="matrix(1,0,0,1,-1432,-744)"></path><path id="SvgjsPath1019" d="M1466.04 752.594C1467.49 754.0340000000001 1467.79 754.724 1467.83 754.8140000000001C1468.4299999999998 755.874 1467.1799999999998 755.9540000000001 1467.1799999999998 755.9540000000001L1464.7699999999998 755.994C1464.7699999999998 755.994 1464.2499999999998 756.104 1463.5799999999997 755.604C1462.6799999999996 754.9440000000001 1461.8099999999997 753.214 1461.1599999999996 753.4440000000001C1460.4999999999995 753.6740000000001 1460.5199999999995 755.224 1460.5199999999995 755.224C1460.5199999999995 755.224 1460.5199999999995 755.4440000000001 1460.3699999999994 755.614C1460.1999999999994 755.8040000000001 1459.8799999999994 755.734 1459.8799999999994 755.734L1458.7999999999995 755.734C1458.7999999999995 755.734 1456.4199999999994 755.994 1454.3399999999995 753.664C1452.0599999999995 751.124 1450.0399999999995 746.1229999999999 1450.0399999999995 746.1229999999999C1450.0399999999995 746.1229999999999 1449.9299999999996 745.823 1450.0499999999995 745.6529999999999C1450.1899999999996 745.4929999999999 1450.5799999999995 745.4929999999999 1450.5799999999995 745.4929999999999L1453.1599999999994 745.4929999999999C1453.1599999999994 745.4929999999999 1453.4099999999994 745.4929999999999 1453.5699999999995 745.6529999999999C1453.7099999999996 745.7629999999999 1453.7899999999995 745.9929999999999 1453.7899999999995 745.9929999999999C1453.7899999999995 745.9929999999999 1454.1999999999996 747.103 1454.7599999999995 748.1229999999999C1455.8399999999995 750.1129999999999 1456.3299999999995 750.5429999999999 1456.6799999999996 750.333C1457.2399999999996 750.023 1457.0799999999997 747.523 1457.0799999999997 747.523C1457.0799999999997 747.523 1457.0899999999997 746.613 1456.8099999999997 746.2130000000001C1456.5899999999997 745.9030000000001 1456.1799999999996 745.8030000000001 1455.9999999999998 745.7830000000001C1455.8499999999997 745.7630000000001 1456.0999999999997 745.4030000000001 1456.4099999999999 745.2330000000002C1456.87 744.9930000000002 1457.6799999999998 744.9930000000002 1458.6499999999999 744.9930000000002C1459.4099999999999 744.9930000000002 1459.62 745.0530000000001 1459.9099999999999 745.1230000000002C1460.81 745.3530000000002 1460.4999999999998 746.2430000000002 1460.4999999999998 748.3630000000002C1460.4999999999998 749.0530000000002 1460.4099999999999 749.9930000000002 1460.8499999999997 750.3230000000002C1461.0399999999997 750.4630000000002 1461.5299999999997 750.3430000000002 1462.7399999999998 748.1530000000002C1463.2999999999997 747.1130000000003 1463.7299999999998 745.8830000000003 1463.7299999999998 745.8830000000003C1463.7299999999998 745.8830000000003 1463.8199999999997 745.6730000000002 1463.9599999999998 745.5730000000003C1464.11 745.4930000000003 1464.3199999999997 745.4930000000003 1464.3199999999997 745.4930000000003L1467.0199999999998 745.4930000000003C1467.0199999999998 745.4930000000003 1467.8399999999997 745.3930000000003 1467.9699999999998 745.7830000000002C1468.11 746.1930000000002 1467.6699999999998 747.1630000000002 1466.5599999999997 748.7330000000003C1464.7499999999998 751.3340000000003 1464.5399999999997 751.0930000000003 1466.0399999999997 752.5940000000003Z " fill="#507299" transform="matrix(1,0,0,1,-1432,-744)"></path></svg>